REM DIRINDEX 1\2,1\3,1\4
REM DIRNAME cjc105,folder01,folder02,folder03
TITLE ""
FILE "DISC2Track04.mp3" MP3
  TRACK 01 AUDIO
    TITLE "0:"
    INDEX 01 00:00:00
  TRACK 02 AUDIO
    TITLE "4:cjc105_1886"
    INDEX 01 00:00:15
  TRACK 03 AUDIO
    TITLE "0:"
    INDEX 01 00:05:01
  TRACK 04 AUDIO
    TITLE "2:cjc105_1887"
    INDEX 01 00:05:48
  TRACK 05 AUDIO
    TITLE "3:cjc105_1888"
    INDEX 01 00:06:65
  TRACK 06 AUDIO
    TITLE "0:"
    INDEX 01 00:08:07
  TRACK 07 AUDIO
    TITLE "2:cjc105_1889"
    INDEX 01 00:08:32
  TRACK 08 AUDIO
    TITLE "3:cjc105_1890"
    INDEX 01 00:10:18
  TRACK 09 AUDIO
    TITLE "0:"
    INDEX 01 00:11:37
  TRACK 10 AUDIO
    TITLE "2:cjc105_1891"
    INDEX 01 00:11:62
  TRACK 11 AUDIO
    TITLE "3:cjc105_1892"
    INDEX 01 00:13:10
  TRACK 12 AUDIO
    TITLE "0:"
    INDEX 01 00:14:51
  TRACK 13 AUDIO
    TITLE "2:cjc105_1893"
    INDEX 01 00:14:70
  TRACK 14 AUDIO
    TITLE "3:cjc105_1894"
    INDEX 01 00:16:06
  TRACK 15 AUDIO
    TITLE "0:"
    INDEX 01 00:18:46
  TRACK 16 AUDIO
    TITLE "2:cjc105_1895"
    INDEX 01 00:18:58
  TRACK 17 AUDIO
    TITLE "3:cjc105_1896"
    INDEX 01 00:20:12
  TRACK 18 AUDIO
    TITLE "0:"
    INDEX 01 00:22:07
  TRACK 19 AUDIO
    TITLE "2:cjc105_1897"
    INDEX 01 00:22:19
  TRACK 20 AUDIO
    TITLE "3:cjc105_1898"
    INDEX 01 00:23:50
  TRACK 21 AUDIO
    TITLE "0:"
    INDEX 01 00:24:74
  TRACK 22 AUDIO
    TITLE "2:cjc105_1899"
    INDEX 01 00:25:19
  TRACK 23 AUDIO
    TITLE "3:cjc105_1900"
    INDEX 01 00:27:18
  TRACK 24 AUDIO
    TITLE "0:"
    INDEX 01 00:28:49
  TRACK 25 AUDIO
    TITLE "2:cjc105_1901"
    INDEX 01 00:28:68
  TRACK 26 AUDIO
    TITLE "3:cjc105_1902"
    INDEX 01 00:30:08
  TRACK 27 AUDIO
    TITLE "0:"
    INDEX 01 00:31:16
  TRACK 28 AUDIO
    TITLE "2:cjc105_1903"
    INDEX 01 00:31:33
  TRACK 29 AUDIO
    TITLE "3:cjc105_1904"
    INDEX 01 00:32:60
  TRACK 30 AUDIO
    TITLE "0:"
    INDEX 01 00:34:18
  TRACK 31 AUDIO
    TITLE "2:cjc105_1905"
    INDEX 01 00:34:28
  TRACK 32 AUDIO
    TITLE "3:cjc105_1906"
    INDEX 01 00:36:09
  TRACK 33 AUDIO
    TITLE "0:"
    INDEX 01 00:37:46
  TRACK 34 AUDIO
    TITLE "2:cjc105_1907"
    INDEX 01 00:37:61
  TRACK 35 AUDIO
    TITLE "3:cjc105_1908"
    INDEX 01 00:39:03
  TRACK 36 AUDIO
    TITLE "0:"
    INDEX 01 00:40:03
  TRACK 37 AUDIO
    TITLE "2:cjc105_1909"
    INDEX 01 00:40:11
  TRACK 38 AUDIO
    TITLE "3:cjc105_1910"
    INDEX 01 00:41:42
  TRACK 39 AUDIO
    TITLE "0:"
    INDEX 01 00:43:07
  TRACK 40 AUDIO
    TITLE "2:cjc105_1911"
    INDEX 01 00:43:21
  TRACK 41 AUDIO
    TITLE "3:cjc105_1912"
    INDEX 01 00:44:46
  TRACK 42 AUDIO
    TITLE "0:"
    INDEX 01 00:45:67
  TRACK 43 AUDIO
    TITLE "2:cjc105_1913"
    INDEX 01 00:46:04
  TRACK 44 AUDIO
    TITLE "3:cjc105_1914"
    INDEX 01 00:47:50
  TRACK 45 AUDIO
    TITLE "0:"
    INDEX 01 00:49:08
  TRACK 46 AUDIO
    TITLE "2:cjc105_1915"
    INDEX 01 00:49:25
  TRACK 47 AUDIO
    TITLE "3:cjc105_1916"
    INDEX 01 00:50:46
  TRACK 48 AUDIO
    TITLE "0:"
    INDEX 01 00:52:08
  TRACK 49 AUDIO
    TITLE "2:cjc105_1917"
    INDEX 01 00:52:26
  TRACK 50 AUDIO
    TITLE "3:cjc105_1918"
    INDEX 01 00:53:70
  TRACK 51 AUDIO
    TITLE "0:"
    INDEX 01 00:55:36
  TRACK 52 AUDIO
    TITLE "2:cjc105_1919"
    INDEX 01 00:55:50
  TRACK 53 AUDIO
    TITLE "3:cjc105_1920"
    INDEX 01 00:56:53
  TRACK 54 AUDIO
    TITLE "0:"
    INDEX 01 00:58:05
  TRACK 55 AUDIO
    TITLE "2:cjc105_1921"
    INDEX 01 00:58:15
  TRACK 56 AUDIO
    TITLE "3:cjc105_1922"
    INDEX 01 00:59:34
  TRACK 57 AUDIO
    TITLE "0:"
    INDEX 01 01:01:17
  TRACK 58 AUDIO
    TITLE "2:cjc105_1923"
    INDEX 01 01:01:29
  TRACK 59 AUDIO
    TITLE "3:cjc105_1924"
    INDEX 01 01:02:38
  TRACK 60 AUDIO
    TITLE "0:"
    INDEX 01 01:05:21
  TRACK 61 AUDIO
    TITLE "2:cjc105_1925"
    INDEX 01 01:05:30
  TRACK 62 AUDIO
    TITLE "3:cjc105_1926"
    INDEX 01 01:07:10
  TRACK 63 AUDIO
    TITLE "0:"
    INDEX 01 01:08:38
  TRACK 64 AUDIO
    TITLE "2:cjc105_1927"
    INDEX 01 01:08:62
  TRACK 65 AUDIO
    TITLE "3:cjc105_1928"
    INDEX 01 01:10:37
  TRACK 66 AUDIO
    TITLE "0:"
    INDEX 01 01:11:64
  TRACK 67 AUDIO
    TITLE "2:cjc105_1929"
    INDEX 01 01:12:17
  TRACK 68 AUDIO
    TITLE "3:cjc105_1930"
    INDEX 01 01:13:55
  TRACK 69 AUDIO
    TITLE "0:"
    INDEX 01 01:15:62
  TRACK 70 AUDIO
    TITLE "2:cjc105_1931"
    INDEX 01 01:16:03
  TRACK 71 AUDIO
    TITLE "3:cjc105_1932"
    INDEX 01 01:17:51
  TRACK 72 AUDIO
    TITLE "0:"
    INDEX 01 01:19:03
  TRACK 73 AUDIO
    TITLE "2:cjc105_1933"
    INDEX 01 01:19:13
  TRACK 74 AUDIO
    TITLE "3:cjc105_1934"
    INDEX 01 01:20:22
  TRACK 75 AUDIO
    TITLE "0:"
    INDEX 01 01:21:63
  TRACK 76 AUDIO
    TITLE "2:cjc105_1935"
    INDEX 01 01:22:01
  TRACK 77 AUDIO
    TITLE "3:cjc105_1936"
    INDEX 01 01:23:42
  TRACK 78 AUDIO
    TITLE "0:"
    INDEX 01 01:24:69
  TRACK 79 AUDIO
    TITLE "2:cjc105_1937"
    INDEX 01 01:25:11
  TRACK 80 AUDIO
    TITLE "3:cjc105_1938"
    INDEX 01 01:26:44
  TRACK 81 AUDIO
    TITLE "0:"
    INDEX 01 01:29:52
  TRACK 82 AUDIO
    TITLE "2:cjc105_1939"
    INDEX 01 01:29:60
  TRACK 83 AUDIO
    TITLE "3:cjc105_1940"
    INDEX 01 01:31:26
  TRACK 84 AUDIO
    TITLE "0:"
    INDEX 01 01:33:01
  TRACK 85 AUDIO
    TITLE "2:cjc105_1941"
    INDEX 01 01:33:07
  TRACK 86 AUDIO
    TITLE "3:cjc105_1942"
    INDEX 01 01:34:10
  TRACK 87 AUDIO
    TITLE "0:"
    INDEX 01 01:35:61
  TRACK 88 AUDIO
    TITLE "2:cjc105_1943"
    INDEX 01 01:36:01
  TRACK 89 AUDIO
    TITLE "3:cjc105_1944"
    INDEX 01 01:37:07
  TRACK 90 AUDIO
    TITLE "0:"
    INDEX 01 01:38:69
  TRACK 91 AUDIO
    TITLE "2:cjc105_1945"
    INDEX 01 01:39:06
  TRACK 92 AUDIO
    TITLE "3:cjc105_1946"
    INDEX 01 01:40:27
  TRACK 93 AUDIO
    TITLE "0:"
    INDEX 01 01:41:28
